<?xml version="1.0" encoding="UTF-8" standalone="no"?>
<!DOCTYPE svg PUBLIC "-//W3C//DTD SVG 1.1//EN"
 "http://www.w3.org/Graphics/SVG/1.1/DTD/svg11.dtd">
<!-- Generated by graphviz version 2.43.0 (0)
 -->
<!-- Title: CAOS_ERD Pages: 1 -->
<svg width="781pt" height="79pt"
 viewBox="0.00 0.00 781.16 79.00" xmlns="http://www.w3.org/2000/svg" xmlns:xlink="http://www.w3.org/1999/xlink">
<g id="graph0" class="graph" transform="scale(1 1) rotate(0) translate(4 75)">
<title>CAOS_ERD</title>
<polygon fill="white" stroke="transparent" points="-4,4 -4,-75 777.16,-75 777.16,4 -4,4"/>
<!-- Artist -->
<g id="node1" class="node">
<title>Artist</title>
<ellipse fill="none" stroke="black" cx="52.65" cy="-18" rx="52.79" ry="18"/>
<text text-anchor="middle" x="52.65" y="-14.3" font-family="Times,serif" font-size="14.00">🎭 Artist</text>
</g>
<!-- Product -->
<g id="node2" class="node">
<title>Product</title>
<ellipse fill="none" stroke="black" cx="268.34" cy="-53" rx="63.09" ry="18"/>
<text text-anchor="middle" x="268.34" y="-49.3" font-family="Times,serif" font-size="14.00">🎼 Product</text>
</g>
<!-- Artist&#45;&gt;Product -->
<g id="edge1" class="edge">
<title>Artist&#45;&gt;Product</title>
<path fill="none" stroke="black" d="M100.54,-25.68C130.71,-30.62 170.32,-37.11 203.36,-42.52"/>
<polygon fill="black" stroke="black" points="203.52,-42.55 212.66,-48.61 208.46,-43.36 213.39,-44.16 213.39,-44.16 213.39,-44.16 208.46,-43.36 214.12,-39.72 203.52,-42.55 203.52,-42.55"/>
<text text-anchor="middle" x="155.29" y="-42.8" font-family="Times,serif" font-size="14.00">1 ───&lt; n</text>
</g>
<!-- Contract -->
<g id="node3" class="node">
<title>Contract</title>
<ellipse fill="none" stroke="black" cx="498.32" cy="-18" rx="66.89" ry="18"/>
<text text-anchor="middle" x="498.32" y="-14.3" font-family="Times,serif" font-size="14.00">📄 Contract</text>
</g>
<!-- Artist&#45;&gt;Contract -->
<g id="edge2" class="edge">
<title>Artist&#45;&gt;Contract</title>
<path fill="none" stroke="black" d="M104.87,-15.05C134.25,-13.5 171.83,-11.77 205.29,-11 261.32,-9.71 275.35,-9.82 331.38,-11 361.03,-11.63 393.65,-12.88 422.06,-14.15"/>
<polygon fill="black" stroke="black" points="422.34,-14.17 432.12,-19.12 427.33,-14.39 432.32,-14.62 432.32,-14.62 432.32,-14.62 427.33,-14.39 432.53,-10.13 422.34,-14.17 422.34,-14.17"/>
<text text-anchor="middle" x="268.34" y="-14.8" font-family="Times,serif" font-size="14.00">1 ───&lt; n</text>
</g>
<!-- Product&#45;&gt;Contract -->
<g id="edge3" class="edge">
<title>Product&#45;&gt;Contract</title>
<path fill="none" stroke="black" d="M324.23,-44.57C355.88,-39.71 395.92,-33.57 429.52,-28.41"/>
<polygon fill="black" stroke="black" points="429.84,-28.36 440.4,-31.29 434.78,-27.6 439.72,-26.84 439.72,-26.84 439.72,-26.84 434.78,-27.6 439.04,-22.4 429.84,-28.36 429.84,-28.36"/>
<text text-anchor="middle" x="381.38" y="-43.8" font-family="Times,serif" font-size="14.00">1 ───&lt; n</text>
</g>
<!-- Event -->
<g id="node4" class="node">
<title>Event</title>
<ellipse fill="none" stroke="black" cx="719.21" cy="-18" rx="53.89" ry="18"/>
<text text-anchor="middle" x="719.21" y="-14.3" font-family="Times,serif" font-size="14.00">🎫 Event</text>
</g>
<!-- Contract&#45;&gt;Event -->
<g id="edge4" class="edge">
<title>Contract&#45;&gt;Event</title>
<path fill="none" stroke="black" d="M565.29,-18C593.77,-18 626.94,-18 655.09,-18"/>
<polygon fill="black" stroke="black" points="655.21,-18 665.21,-22.5 660.21,-18 665.21,-18 665.21,-18 665.21,-18 660.21,-18 665.21,-13.5 655.21,-18 655.21,-18"/>
<text text-anchor="middle" x="615.27" y="-21.8" font-family="Times,serif" font-size="14.00">1 ───&lt; n</text>
</g>
</g>
</svg>
